HIERARCHY
ROOT Hips
{
	OFFSET -0.001795 -0.223333 0.028219
	CHANNELS 6 Xposition Yposition Zposition Zrotation Yrotation Xrotation 
	JOINT LeftUpLeg
	{
		OFFSET 0.069520 -0.091406 -0.006815
		CHANNELS 3 Zrotation Yrotation Xrotation
		JOINT LeftLeg
		{
			OFFSET 0.034277 -0.375199 -0.004496
			CHANNELS 3 Zrotation Yrotation Xrotation
			JOINT LeftFoot
			{
				OFFSET -0.013596 -0.397961 -0.043693
				CHANNELS 3 Zrotation Yrotation Xrotation
				JOINT LeftToe
				{
					OFFSET 0.026358 -0.055791 0.119288
					CHANNELS 3 Zrotation Yrotation Xrotation
					End Site
					{
						OFFSET 0.000000 0.000000 0.000000
					}
				}
			}
		}
	}
	JOINT RightUpLeg
	{
		OFFSET -0.067670 -0.090522 -0.004320
		CHANNELS 3 Zrotation Yrotation Xrotation
		JOINT RightLeg
		{
			OFFSET -0.038290 -0.382569 -0.008850
			CHANNELS 3 Zrotation Yrotation Xrotation
			JOINT RightFoot
			{
				OFFSET 0.015774 -0.398415 -0.042312
				CHANNELS 3 Zrotation Yrotation Xrotation
				JOINT RightToe
				{
					OFFSET -0.025372 -0.048144 0.123348
					CHANNELS 3 Zrotation Yrotation Xrotation
					End Site
					{
						OFFSET 0.000000 0.000000 0.000000
					}
				}
			}
		}
	}
	JOINT Spine
	{
		OFFSET -0.002533 0.108963 -0.026696
		CHANNELS 3 Zrotation Yrotation Xrotation
		JOINT Spine1
		{
			OFFSET 0.005487 0.135180 0.001092
			CHANNELS 3 Zrotation Yrotation Xrotation
			JOINT Spine2
			{
				OFFSET 0.001457 0.052922 0.025425
				CHANNELS 3 Zrotation Yrotation Xrotation
				JOINT Neck
				{
					OFFSET -0.002778 0.213870 -0.042857
					CHANNELS 3 Zrotation Yrotation Xrotation
					JOINT Head
					{
						OFFSET 0.005152 0.064970 0.051349
						CHANNELS 3 Zrotation Yrotation Xrotation
						End Site
						{
							OFFSET 0.000000 0.000000 0.000000
						}
					}
				}
				JOINT LeftShoulder
				{
					OFFSET 0.078845 0.121749 -0.034090
					CHANNELS 3 Zrotation Yrotation Xrotation
					JOINT LeftArm
					{
						OFFSET 0.090977 0.030469 -0.008868
						CHANNELS 3 Zrotation Yrotation Xrotation
						JOINT LeftForeArm
						{
							OFFSET 0.259612 -0.012772 -0.027456
							CHANNELS 3 Zrotation Yrotation Xrotation
							JOINT LeftHand
							{
								OFFSET 0.249234 0.008986 -0.001171
								CHANNELS 3 Zrotation Yrotation Xrotation
								End Site
								{
									OFFSET 0.000000 0.000000 0.000000
								}
							}
						}
					}
				}
				JOINT RightShoulder
				{
					OFFSET -0.081759 0.118833 -0.038615
					CHANNELS 3 Zrotation Yrotation Xrotation
					JOINT RightArm
					{
						OFFSET -0.096012 0.032551 -0.009143
						CHANNELS 3 Zrotation Yrotation Xrotation
						JOINT RightForeArm
						{
							OFFSET -0.253742 -0.013329 -0.021401
							CHANNELS 3 Zrotation Yrotation Xrotation
							JOINT RightHand
							{
								OFFSET -0.255298 0.007772 -0.005559
								CHANNELS 3 Zrotation Yrotation Xrotation
								End Site
								{
									OFFSET 0.000000 0.000000 0.000000
								}
							}
						}
					}
				}
			}
		}
	}
}
MOTION
Frames: 14
Frame Time: 0.050000
0.015317 0.951594 -0.152460 2.672741 -10.748698 29.856252 1.579831 -1.568338 -32.866266 0.306318 0.348670 -9.080950 17.853635 25.646676 50.482009 0.000000 0.000000 0.000000 -13.292262 2.107280 -40.672810 2.378090 0.001879 6.998399 2.210380 -5.323747 20.159418 0.000000 0.000000 0.000000 6.901147 -2.698593 25.273431 5.988964 -2.401081 -0.326862 6.813676 8.917070 8.154104 11.407351 -5.640897 -14.827430 0.000000 0.000000 0.000000 -9.876209 1.200284 -1.936101 -57.553986 2.934225 -7.953721 -70.252340 -41.464915 31.605850 0.000000 0.000000 0.000000 -2.267061 8.103547 3.179135 24.705086 45.791770 5.371192 -135.901154 39.775720 -68.431655 0.000000 0.000000 0.000000 
0.015173 0.952784 -0.155933 3.496277 -10.484624 30.690512 0.781656 -1.817220 -33.711846 0.702345 0.232391 -7.151338 12.319589 21.470610 41.589334 0.000000 0.000000 0.000000 -13.959529 1.910857 -41.447852 1.969050 0.051713 6.944453 1.771076 -5.748127 19.552846 0.000000 0.000000 0.000000 7.569827 -2.986478 25.574574 6.230841 -2.488423 -0.453783 6.775699 9.129136 8.606256 11.618753 -5.528631 -15.882166 0.000000 0.000000 0.000000 -9.381315 1.599634 -2.120149 -57.937495 2.828195 -8.023434 -73.675784 -42.667059 34.437647 0.000000 0.000000 0.000000 -4.167523 7.621568 2.972065 21.630729 45.196744 4.200763 -136.055625 35.485987 -60.926968 0.000000 0.000000 0.000000 
0.015141 0.952916 -0.159459 4.004934 -10.494207 31.373848 0.716166 -1.855517 -34.192311 0.599676 0.143159 -5.166559 7.891011 16.928998 33.046029 0.000000 0.000000 0.000000 -14.453574 1.794543 -41.908335 1.789119 0.064771 6.641077 1.508526 -5.809338 18.571521 0.000000 0.000000 0.000000 8.030525 -3.196487 26.072804 6.515110 -2.593485 -0.550612 6.447047 9.626558 8.737855 12.040457 -5.529022 -16.819189 0.000000 0.000000 0.000000 -9.517317 1.179182 -2.043606 -58.735767 2.324218 -7.942955 -76.261288 -44.380419 37.293237 0.000000 0.000000 0.000000 -5.582067 7.499823 2.902127 18.472978 45.244471 3.180433 -134.017638 31.905171 -51.693731 0.000000 0.000000 0.000000 
0.014983 0.952257 -0.162885 4.715890 -10.269423 31.805887 0.305648 -2.005109 -34.617029 0.819191 0.035866 -3.121768 4.630286 12.639962 25.960475 0.000000 0.000000 0.000000 -15.196405 1.558500 -42.680514 1.748700 0.083695 7.163753 1.111820 -6.187018 17.899577 0.000000 0.000000 0.000000 9.120413 -3.627606 26.556229 5.926857 -2.315356 -1.457520 6.772110 9.476864 10.244513 12.471508 -5.255370 -19.568126 0.000000 0.000000 0.000000 -8.560491 1.089346 -1.847787 -60.225643 1.589016 -7.962641 -77.494435 -46.320158 39.982461 0.000000 0.000000 0.000000 -7.646698 7.526206 2.840540 17.332355 45.637361 2.802533 -131.598598 30.836233 -47.200998 0.000000 0.000000 0.000000 
0.014540 0.951056 -0.165986 4.911597 -10.459570 31.935149 0.555637 -1.933177 -34.723496 0.558398 0.009801 -1.920214 3.369130 10.474576 22.073557 0.000000 0.000000 0.000000 -15.428790 1.536370 -43.241599 1.468168 0.144430 7.684657 1.456057 -5.363141 17.320385 0.000000 0.000000 0.000000 9.651148 -3.808194 26.759382 5.772194 -2.257687 -1.409440 6.661931 9.963215 10.587408 12.611002 -5.153805 -20.303760 0.000000 0.000000 0.000000 -8.059719 0.684602 -1.648682 -60.979890 1.421398 -8.084214 -79.035557 -47.334969 41.800798 0.000000 0.000000 0.000000 -8.192538 8.269641 3.038298 16.508185 45.645967 2.566271 -127.300741 31.498271 -44.073990 0.000000 0.000000 0.000000 
0.013519 0.949888 -0.168525 5.294276 -10.178182 31.835798 0.707746 -1.941324 -34.831053 -0.235020 0.080388 -1.720907 3.293922 10.324188 21.298060 0.000000 0.000000 0.000000 -15.974466 1.322670 -43.537682 2.051191 0.070850 8.252448 0.979633 -6.007793 16.880526 0.000000 0.000000 0.000000 10.321296 -4.063440 26.853768 5.588579 -2.193739 -1.327203 6.791381 10.147703 10.571799 12.688980 -5.207782 -20.120756 0.000000 0.000000 0.000000 -8.272927 0.179123 -1.488634 -60.813088 1.598506 -8.164166 -79.512637 -48.057382 42.651046 0.000000 0.000000 0.000000 -7.926831 9.238716 3.350988 17.934872 45.314930 3.035664 -123.388243 36.461696 -48.290963 0.000000 0.000000 0.000000 
0.012290 0.948722 -0.170106 5.545261 -9.879464 31.431771 0.565656 -2.005641 -34.547469 -0.027422 0.037830 -1.047334 2.620035 9.150300 19.522384 0.000000 0.000000 0.000000 -16.332173 1.150411 -43.889491 2.197708 0.087621 9.702736 1.203287 -5.283109 16.231572 0.000000 0.000000 0.000000 10.861459 -4.288523 27.290483 5.337927 -2.077070 -1.919241 7.237609 10.452749 11.374670 13.120246 -5.193473 -21.282454 0.000000 0.000000 0.000000 -7.683393 -0.168634 -1.290984 -60.750395 1.871572 -8.423065 -80.109924 -47.901925 42.782027 0.000000 0.000000 0.000000 -8.700314 10.141667 3.544824 22.730815 44.879310 4.726451 -117.571877 42.315188 -51.442562 0.000000 0.000000 0.000000 
0.011256 0.947834 -0.170967 5.977249 -9.149696 30.803185 0.281220 -2.147596 -34.129500 -0.219863 0.048579 -0.743502 2.413473 8.862519 18.789075 0.000000 0.000000 0.000000 -16.795481 0.844171 -43.780244 2.671277 0.030105 11.101310 0.847110 -5.505828 15.389719 0.000000 0.000000 0.000000 11.401482 -4.533544 27.430303 5.573155 -2.198653 -1.603483 7.225293 11.185594 11.028922 13.601696 -5.398956 -21.030860 0.000000 0.000000 0.000000 -8.190035 -0.455574 -1.380136 -59.912068 2.854065 -8.827373 -79.907367 -46.424498 40.732280 0.000000 0.000000 0.000000 -7.402333 10.346551 3.667803 26.637731 44.050314 6.045452 -113.475847 48.203203 -55.114050 0.000000 0.000000 0.000000 
0.010596 0.947394 -0.171335 6.429071 -8.714717 30.258680 -0.255341 -2.321479 -33.948523 -0.173713 0.019774 0.047334 2.347825 8.698624 17.849709 0.000000 0.000000 0.000000 -17.502456 0.529150 -43.762453 3.079328 -0.024648 12.576575 1.007157 -4.756207 14.502459 0.000000 0.000000 0.000000 11.809423 -4.713139 27.611778 5.526287 -2.175728 -1.828756 7.619695 11.864271 11.459399 14.205580 -5.619190 -21.240065 0.000000 0.000000 0.000000 -8.876100 -0.752640 -1.469444 -58.350276 3.989731 -9.150762 -80.548399 -45.193140 39.608442 0.000000 0.000000 0.000000 -7.287442 10.435897 3.666496 29.210604 42.728163 6.703521 -109.662761 50.915359 -54.812604 0.000000 0.000000 0.000000 
0.010526 0.947567 -0.171612 6.796941 -8.430707 29.498346 -0.674465 -2.446660 -33.747101 -0.120009 -0.011276 0.890197 2.215006 8.551650 17.791683 0.000000 0.000000 0.000000 -17.968249 0.317128 -43.398418 3.388399 -0.073109 13.733910 1.043965 -4.337120 13.782639 0.000000 0.000000 0.000000 12.191061 -4.856118 27.719437 5.752815 -2.289648 -1.603887 7.753225 12.505238 11.232641 14.946122 -5.921172 -21.383630 0.000000 0.000000 0.000000 -8.839010 -0.385299 -1.732055 -57.426431 5.880451 -9.894956 -81.941490 -42.046092 37.100084 0.000000 0.000000 0.000000 -6.503472 9.873762 3.521697 29.664455 42.091894 6.769649 -107.982069 51.649030 -53.969159 0.000000 0.000000 0.000000 
0.010570 0.947777 -0.172068 7.350312 -8.031127 29.132362 -1.316593 -2.650483 -33.787583 -0.309884 -0.009277 1.627568 2.376391 8.790704 17.223779 0.000000 0.000000 0.000000 -18.245641 0.127937 -43.331226 3.422487 -0.071828 14.985058 0.421046 -5.050507 12.556524 0.000000 0.000000 0.000000 12.271184 -4.847851 27.140055 6.135016 -2.466295 -1.278248 7.919455 12.899263 11.069193 15.439096 -6.362926 -20.494335 0.000000 0.000000 0.000000 -9.625902 0.285271 -2.255763 -56.255744 8.336762 -10.745128 -82.585074 -38.658840 33.910318 0.000000 0.000000 0.000000 -6.252475 9.318780 3.335363 28.636065 42.259943 6.532369 -106.897232 50.686448 -51.632711 0.000000 0.000000 0.000000 
0.010535 0.947991 -0.172772 7.747246 -7.697948 28.740409 -1.635390 -2.750641 -33.535013 -0.681870 0.021939 2.261980 2.374670 8.635869 16.020699 0.000000 0.000000 0.000000 -18.724627 -0.101455 -43.254475 3.757710 -0.145689 16.024800 0.247680 -5.078388 11.866704 0.000000 0.000000 0.000000 12.297064 -4.824984 26.775782 6.564122 -2.654591 -1.229403 8.018434 13.324776 11.158615 16.079083 -6.700070 -20.431294 0.000000 0.000000 0.000000 -9.332318 0.706421 -2.463376 -55.892431 9.930310 -11.445837 -83.175824 -36.869547 32.232712 0.000000 0.000000 0.000000 -5.881784 8.724189 3.141218 27.575039 42.670525 6.348284 -105.615766 49.327748 -48.740770 0.000000 0.000000 0.000000 
0.010311 0.947649 -0.173883 7.936216 -7.924739 28.162916 -1.713216 -2.742914 -33.400461 -0.964874 0.044114 3.086334 2.544719 8.784905 15.574144 0.000000 0.000000 0.000000 -18.629232 -0.046190 -43.309138 3.972539 -0.173965 16.976612 -0.353314 -6.186780 11.388491 0.000000 0.000000 0.000000 12.211243 -4.728587 26.597866 6.732824 -2.743382 -0.970772 8.175701 13.854916 11.059844 16.256658 -6.835992 -20.188096 0.000000 0.000000 0.000000 -9.089512 0.894225 -2.543013 -55.476174 11.122891 -11.922288 -83.081905 -35.613772 30.778190 0.000000 0.000000 0.000000 -5.352331 9.013614 3.273968 25.634966 42.633504 5.717966 -104.036251 48.141539 -46.112929 0.000000 0.000000 0.000000 
0.010114 0.947302 -0.175290 8.274845 -7.823550 27.749724 -1.747553 -2.755047 -33.201343 -1.399818 0.097925 3.530244 2.317393 8.334870 14.974394 0.000000 0.000000 0.000000 -18.969715 -0.188528 -43.378346 4.370980 -0.267481 17.980739 -0.712404 -6.693454 10.774830 0.000000 0.000000 0.000000 11.887552 -4.572653 26.232834 7.078710 -2.907106 -0.777295 8.391750 14.298207 11.233900 16.695534 -7.153227 -19.845408 0.000000 0.000000 0.000000 -8.913315 1.081317 -2.653108 -54.753893 11.697068 -12.040391 -83.300103 -34.822073 29.903625 0.000000 0.000000 0.000000 -5.014750 8.802099 3.215056 24.377599 42.604436 5.325694 -102.778854 47.668443 -44.465291 0.000000 0.000000 0.000000 
